<svg width="21" height="20" viewBox="0 0 21 20" fill="none" xmlns="http://www.w3.org/2000/svg">
<path d="M14.8327 7.64174C14.6766 7.48653 14.4654 7.39941 14.2452 7.39941C14.0251 7.39941 13.8139 7.48653 13.6577 7.64174L10.6661 10.5917L7.71605 7.64174C7.55992 7.48653 7.34871 7.39941 7.12855 7.39941C6.9084 7.39941 6.69719 7.48653 6.54105 7.64174C6.46295 7.71921 6.40095 7.81138 6.35864 7.91293C6.31634 8.01448 6.29456 8.1234 6.29456 8.23341C6.29456 8.34342 6.31634 8.45234 6.35864 8.55389C6.40095 8.65544 6.46295 8.74761 6.54105 8.82507L10.0744 12.3584C10.1519 12.4365 10.244 12.4985 10.3456 12.5408C10.4471 12.5831 10.556 12.6049 10.6661 12.6049C10.7761 12.6049 10.885 12.5831 10.9865 12.5408C11.0881 12.4985 11.1803 12.4365 11.2577 12.3584L14.8327 8.82507C14.9108 8.74761 14.9728 8.65544 15.0151 8.55389C15.0574 8.45234 15.0792 8.34342 15.0792 8.23341C15.0792 8.1234 15.0574 8.01448 15.0151 7.91293C14.9728 7.81138 14.9108 7.71921 14.8327 7.64174Z" fill="#959595"/>
</svg>
