<svg width="21" height="20" viewBox="0 0 21 20" fill="none" xmlns="http://www.w3.org/2000/svg">
<path d="M14.8327 11.1751L11.2577 7.64176C11.1803 7.56366 11.0881 7.50166 10.9865 7.45935C10.885 7.41705 10.7761 7.39526 10.6661 7.39526C10.556 7.39526 10.4471 7.41705 10.3456 7.45935C10.244 7.50166 10.1519 7.56366 10.0744 7.64176L6.54105 11.1751C6.46295 11.2526 6.40095 11.3447 6.35864 11.4463C6.31634 11.5478 6.29456 11.6568 6.29456 11.7668C6.29456 11.8768 6.31634 11.9857 6.35864 12.0872C6.40095 12.1888 6.46295 12.281 6.54105 12.3584C6.69719 12.5136 6.9084 12.6008 7.12855 12.6008C7.34871 12.6008 7.55992 12.5136 7.71605 12.3584L10.6661 9.40843L13.6161 12.3584C13.7713 12.5124 13.9808 12.5992 14.1994 12.6001C14.3091 12.6007 14.4178 12.5797 14.5193 12.5382C14.6208 12.4968 14.7132 12.4357 14.7911 12.3584C14.8719 12.2837 14.9372 12.1938 14.9832 12.0937C15.0291 11.9936 15.0547 11.8855 15.0586 11.7754C15.0625 11.6654 15.0445 11.5557 15.0057 11.4527C14.967 11.3496 14.9082 11.2553 14.8327 11.1751Z" fill="#959595"/>
</svg>
