<svg width="20" height="20" viewBox="0 0 20 20" fill="none" xmlns="http://www.w3.org/2000/svg">
<path d="M9.40818 9.99992L12.3582 7.04992C12.5134 6.89378 12.6005 6.68257 12.6005 6.46242C12.6005 6.24226 12.5134 6.03105 12.3582 5.87492C12.2807 5.79681 12.1885 5.73481 12.087 5.69251C11.9854 5.6502 11.8765 5.62842 11.7665 5.62842C11.6565 5.62842 11.5476 5.6502 11.446 5.69251C11.3445 5.73481 11.2523 5.79681 11.1749 5.87492L7.64152 9.40825C7.56341 9.48572 7.50142 9.57789 7.45911 9.67944C7.4168 9.78098 7.39502 9.88991 7.39502 9.99992C7.39502 10.1099 7.4168 10.2188 7.45911 10.3204C7.50142 10.4219 7.56341 10.5141 7.64152 10.5916L11.1749 14.1666C11.2527 14.2438 11.3451 14.3049 11.4466 14.3464C11.5481 14.3879 11.6568 14.4089 11.7665 14.4082C11.8762 14.4089 11.9849 14.3879 12.0864 14.3464C12.188 14.3049 12.2803 14.2438 12.3582 14.1666C12.5134 14.0104 12.6005 13.7992 12.6005 13.5791C12.6005 13.3589 12.5134 13.1477 12.3582 12.9916L9.40818 9.99992Z" fill="#959595"/>
</svg>
