<svg width="20" height="20" viewBox="0 0 20 20" fill="none" xmlns="http://www.w3.org/2000/svg">
<g opacity="0.6">
<path d="M12.3584 9.40825L8.82507 5.87492C8.74761 5.79681 8.65544 5.73481 8.55389 5.69251C8.45234 5.6502 8.34342 5.62842 8.23341 5.62842C8.1234 5.62842 8.01448 5.6502 7.91293 5.69251C7.81138 5.73481 7.71921 5.79681 7.64174 5.87492C7.48653 6.03105 7.39941 6.24226 7.39941 6.46242C7.39941 6.68257 7.48653 6.89378 7.64174 7.04992L10.5917 9.99992L7.64174 12.9499C7.48653 13.1061 7.39941 13.3173 7.39941 13.5374C7.39941 13.7576 7.48653 13.9688 7.64174 14.1249C7.71961 14.2022 7.81195 14.2633 7.91349 14.3047C8.01502 14.3462 8.12374 14.3672 8.23341 14.3666C8.34308 14.3672 8.4518 14.3462 8.55333 14.3047C8.65486 14.2633 8.74721 14.2022 8.82507 14.1249L12.3584 10.5916C12.4365 10.5141 12.4985 10.4219 12.5408 10.3204C12.5831 10.2188 12.6049 10.1099 12.6049 9.99992C12.6049 9.88991 12.5831 9.78098 12.5408 9.67944C12.4985 9.57789 12.4365 9.48572 12.3584 9.40825Z" fill="#959595"/>
</g>
</svg>
