<svg width="21" height="20" viewBox="0 0 21 20" fill="none" xmlns="http://www.w3.org/2000/svg">
<path d="M10.666 15.8333C10.8308 15.8333 10.9919 15.7844 11.129 15.6928C11.266 15.6012 11.3728 15.4711 11.4359 15.3188C11.4989 15.1665 11.5155 14.999 11.4833 14.8373C11.4511 14.6757 11.3718 14.5272 11.2552 14.4107C11.1387 14.2941 10.9902 14.2148 10.8286 14.1826C10.6669 14.1504 10.4993 14.1669 10.3471 14.23C10.1948 14.2931 10.0647 14.3999 9.97308 14.5369C9.88152 14.674 9.83264 14.8351 9.83264 14.9999C9.83264 15.2209 9.92044 15.4329 10.0767 15.5892C10.233 15.7455 10.445 15.8333 10.666 15.8333ZM14.8326 15.8333C14.9975 15.8333 15.1586 15.7844 15.2956 15.6928C15.4327 15.6012 15.5395 15.4711 15.6025 15.3188C15.6656 15.1665 15.6821 14.999 15.65 14.8373C15.6178 14.6757 15.5384 14.5272 15.4219 14.4107C15.3054 14.2941 15.1569 14.2148 14.9952 14.1826C14.8336 14.1504 14.666 14.1669 14.5137 14.23C14.3615 14.2931 14.2313 14.3999 14.1398 14.5369C14.0482 14.674 13.9993 14.8351 13.9993 14.9999C13.9993 15.2209 14.0871 15.4329 14.2434 15.5892C14.3997 15.7455 14.6116 15.8333 14.8326 15.8333ZM14.8326 12.4999C14.9975 12.4999 15.1586 12.451 15.2956 12.3595C15.4327 12.2679 15.5395 12.1378 15.6025 11.9855C15.6656 11.8332 15.6821 11.6657 15.65 11.504C15.6178 11.3424 15.5384 11.1939 15.4219 11.0773C15.3054 10.9608 15.1569 10.8814 14.9952 10.8493C14.8336 10.8171 14.666 10.8336 14.5137 10.8967C14.3615 10.9598 14.2313 11.0666 14.1398 11.2036C14.0482 11.3406 13.9993 11.5018 13.9993 11.6666C13.9993 11.8876 14.0871 12.0996 14.2434 12.2558C14.3997 12.4121 14.6116 12.4999 14.8326 12.4999ZM10.666 12.4999C10.8308 12.4999 10.9919 12.451 11.129 12.3595C11.266 12.2679 11.3728 12.1378 11.4359 11.9855C11.4989 11.8332 11.5155 11.6657 11.4833 11.504C11.4511 11.3424 11.3718 11.1939 11.2552 11.0773C11.1387 10.9608 10.9902 10.8814 10.8286 10.8493C10.6669 10.8171 10.4993 10.8336 10.3471 10.8967C10.1948 10.9598 10.0647 11.0666 9.97308 11.2036C9.88152 11.3406 9.83264 11.5018 9.83264 11.6666C9.83264 11.8876 9.92044 12.0996 10.0767 12.2558C10.233 12.4121 10.445 12.4999 10.666 12.4999ZM16.4993 2.49992H15.666V1.66659C15.666 1.44557 15.5782 1.23361 15.4219 1.07733C15.2656 0.921049 15.0537 0.833252 14.8326 0.833252C14.6116 0.833252 14.3997 0.921049 14.2434 1.07733C14.0871 1.23361 13.9993 1.44557 13.9993 1.66659V2.49992H7.33264V1.66659C7.33264 1.44557 7.24484 1.23361 7.08856 1.07733C6.93228 0.921049 6.72032 0.833252 6.49931 0.833252C6.27829 0.833252 6.06633 0.921049 5.91005 1.07733C5.75377 1.23361 5.66598 1.44557 5.66598 1.66659V2.49992H4.83264C4.1696 2.49992 3.53372 2.76331 3.06487 3.23215C2.59603 3.70099 2.33264 4.33688 2.33264 4.99992V16.6666C2.33264 17.3296 2.59603 17.9655 3.06487 18.4344C3.53372 18.9032 4.1696 19.1666 4.83264 19.1666H16.4993C17.1624 19.1666 17.7982 18.9032 18.2671 18.4344C18.7359 17.9655 18.9993 17.3296 18.9993 16.6666V4.99992C18.9993 4.33688 18.7359 3.70099 18.2671 3.23215C17.7982 2.76331 17.1624 2.49992 16.4993 2.49992ZM17.3326 16.6666C17.3326 16.8876 17.2448 17.0996 17.0886 17.2558C16.9323 17.4121 16.7203 17.4999 16.4993 17.4999H4.83264C4.61163 17.4999 4.39967 17.4121 4.24339 17.2558C4.08711 17.0996 3.99931 16.8876 3.99931 16.6666V9.16658H17.3326V16.6666ZM17.3326 7.49992H3.99931V4.99992C3.99931 4.7789 4.08711 4.56694 4.24339 4.41066C4.39967 4.25438 4.61163 4.16658 4.83264 4.16658H5.66598V4.99992C5.66598 5.22093 5.75377 5.43289 5.91005 5.58917C6.06633 5.74545 6.27829 5.83325 6.49931 5.83325C6.72032 5.83325 6.93228 5.74545 7.08856 5.58917C7.24484 5.43289 7.33264 5.22093 7.33264 4.99992V4.16658H13.9993V4.99992C13.9993 5.22093 14.0871 5.43289 14.2434 5.58917C14.3997 5.74545 14.6116 5.83325 14.8326 5.83325C15.0537 5.83325 15.2656 5.74545 15.4219 5.58917C15.5782 5.43289 15.666 5.22093 15.666 4.99992V4.16658H16.4993C16.7203 4.16658 16.9323 4.25438 17.0886 4.41066C17.2448 4.56694 17.3326 4.7789 17.3326 4.99992V7.49992ZM6.49931 12.4999C6.66413 12.4999 6.82524 12.451 6.96228 12.3595C7.09932 12.2679 7.20614 12.1378 7.26921 11.9855C7.33228 11.8332 7.34878 11.6657 7.31663 11.504C7.28448 11.3424 7.20511 11.1939 7.08856 11.0773C6.97202 10.9608 6.82353 10.8814 6.66188 10.8493C6.50023 10.8171 6.33268 10.8336 6.18041 10.8967C6.02813 10.9598 5.89798 11.0666 5.80642 11.2036C5.71485 11.3406 5.66598 11.5018 5.66598 11.6666C5.66598 11.8876 5.75377 12.0996 5.91005 12.2558C6.06633 12.4121 6.27829 12.4999 6.49931 12.4999ZM6.49931 15.8333C6.66413 15.8333 6.82524 15.7844 6.96228 15.6928C7.09932 15.6012 7.20614 15.4711 7.26921 15.3188C7.33228 15.1665 7.34878 14.999 7.31663 14.8373C7.28448 14.6757 7.20511 14.5272 7.08856 14.4107C6.97202 14.2941 6.82353 14.2148 6.66188 14.1826C6.50023 14.1504 6.33268 14.1669 6.18041 14.23C6.02813 14.2931 5.89798 14.3999 5.80642 14.5369C5.71485 14.674 5.66598 14.8351 5.66598 14.9999C5.66598 15.2209 5.75377 15.4329 5.91005 15.5892C6.06633 15.7455 6.27829 15.8333 6.49931 15.8333Z" fill="#959595"/>
</svg>
