<svg width="21" height="20" viewBox="0 0 21 20" fill="none" xmlns="http://www.w3.org/2000/svg">
<path d="M16.2577 6.00822C16.1803 5.93011 16.0881 5.86811 15.9865 5.82581C15.885 5.7835 15.7761 5.76172 15.6661 5.76172C15.556 5.76172 15.4471 5.7835 15.3456 5.82581C15.244 5.86811 15.1519 5.93011 15.0744 6.00822L8.86606 12.2249L6.25772 9.60822C6.17729 9.53052 6.08234 9.46942 5.97829 9.42842C5.87424 9.38742 5.76314 9.36731 5.65132 9.36924C5.53951 9.37118 5.42917 9.39512 5.3266 9.4397C5.22403 9.48427 5.13125 9.54862 5.05356 9.62905C4.97586 9.70949 4.91476 9.80444 4.87376 9.90848C4.83275 10.0125 4.81265 10.1236 4.81458 10.2354C4.81652 10.3473 4.84045 10.4576 4.88503 10.5602C4.92961 10.6627 4.99395 10.7555 5.07439 10.8332L8.27439 14.0332C8.35186 14.1113 8.44403 14.1733 8.54557 14.2156C8.64712 14.2579 8.75605 14.2797 8.86606 14.2797C8.97607 14.2797 9.08499 14.2579 9.18654 14.2156C9.28809 14.1733 9.38025 14.1113 9.45772 14.0332L16.2577 7.23322C16.3423 7.15518 16.4098 7.06047 16.456 6.95506C16.5022 6.84964 16.526 6.7358 16.526 6.62072C16.526 6.50563 16.5022 6.3918 16.456 6.28638C16.4098 6.18096 16.3423 6.08625 16.2577 6.00822Z" fill="white"/>
</svg>
