<svg width="21" height="20" viewBox="0 0 21 20" fill="none" xmlns="http://www.w3.org/2000/svg">
<path d="M17.3327 7.45008C17.324 7.37353 17.3073 7.29811 17.2827 7.22508V7.15008C17.2427 7.0644 17.1892 6.98564 17.1244 6.91675L12.1244 1.91675C12.0555 1.85193 11.9767 1.79848 11.8911 1.75841H11.8161L11.5494 1.66675H6.49939C5.83635 1.66675 5.20046 1.93014 4.73162 2.39898C4.26278 2.86782 3.99939 3.50371 3.99939 4.16675V15.8334C3.99939 16.4965 4.26278 17.1323 4.73162 17.6012C5.20046 18.07 5.83635 18.3334 6.49939 18.3334H14.8327C15.4958 18.3334 16.1316 18.07 16.6005 17.6012C17.0693 17.1323 17.3327 16.4965 17.3327 15.8334V7.50008C17.3327 7.50008 17.3327 7.50008 17.3327 7.45008ZM12.3327 4.50841L14.4911 6.66675H12.3327V4.50841ZM15.6661 15.8334C15.6661 16.0544 15.5783 16.2664 15.422 16.4227C15.2657 16.579 15.0537 16.6667 14.8327 16.6667H6.49939C6.27838 16.6667 6.06641 16.579 5.91013 16.4227C5.75385 16.2664 5.66606 16.0544 5.66606 15.8334V4.16675C5.66606 3.94573 5.75385 3.73377 5.91013 3.57749C6.06641 3.42121 6.27838 3.33341 6.49939 3.33341H10.6661V7.50008C10.6661 7.7211 10.7539 7.93306 10.9101 8.08934C11.0664 8.24562 11.2784 8.33342 11.4994 8.33342H15.6661V15.8334Z" fill="#959595"/>
</svg>
