<svg width="22" height="22" viewBox="0 0 22 22" fill="none" xmlns="http://www.w3.org/2000/svg">
<path d="M18.3334 7.33322L12.8334 2.51155C12.3292 2.06059 11.6765 1.81128 11.0001 1.81128C10.3236 1.81128 9.67094 2.06059 9.16675 2.51155L3.66675 7.33322C3.37559 7.59362 3.14325 7.91306 2.98519 8.27027C2.82713 8.62749 2.74698 9.01428 2.75009 9.40488V17.4166C2.75009 18.1459 3.03982 18.8454 3.55554 19.3611C4.07127 19.8768 4.77074 20.1665 5.50009 20.1665H16.5001C17.2294 20.1665 17.9289 19.8768 18.4446 19.3611C18.9604 18.8454 19.2501 18.1459 19.2501 17.4166V9.39572C19.2519 9.00665 19.1711 8.62163 19.0131 8.26609C18.8551 7.91055 18.6234 7.59259 18.3334 7.33322ZM12.8334 18.3332H9.16675V13.7499C9.16675 13.5068 9.26333 13.2736 9.43524 13.1017C9.60715 12.9298 9.84031 12.8332 10.0834 12.8332H11.9168C12.1599 12.8332 12.393 12.9298 12.5649 13.1017C12.7368 13.2736 12.8334 13.5068 12.8334 13.7499V18.3332ZM17.4168 17.4166C17.4168 17.6597 17.3202 17.8928 17.1483 18.0647C16.9764 18.2366 16.7432 18.3332 16.5001 18.3332H14.6668V13.7499C14.6668 13.0205 14.377 12.3211 13.8613 11.8053C13.3456 11.2896 12.6461 10.9999 11.9168 10.9999H10.0834C9.35407 10.9999 8.6546 11.2896 8.13888 11.8053C7.62315 12.3211 7.33342 13.0205 7.33342 13.7499V18.3332H5.50009C5.25697 18.3332 5.02381 18.2366 4.85191 18.0647C4.68 17.8928 4.58342 17.6597 4.58342 17.4166V9.39572C4.58359 9.26556 4.61146 9.13694 4.6652 9.0184C4.71894 8.89986 4.79731 8.79412 4.89509 8.70822L10.3951 3.89572C10.5624 3.74876 10.7774 3.66771 11.0001 3.66771C11.2228 3.66771 11.4378 3.74876 11.6051 3.89572L17.1051 8.70822C17.2029 8.79412 17.2812 8.89986 17.335 9.0184C17.3887 9.13694 17.4166 9.26556 17.4168 9.39572V17.4166Z" fill="white"/>
</svg>
