<svg width="104" height="165" viewBox="0 0 104 165" fill="none" xmlns="http://www.w3.org/2000/svg">
<mask id="path-1-inside-1_2653_95931" fill="white">
<path fill-rule="evenodd" clip-rule="evenodd" d="M80.6855 0.787706C79.8851 -0.261919 78.3053 -0.261917 77.5049 0.787709L74.8684 4.245H6C2.68629 4.245 0 6.9313 0 10.245V158.163C0 161.476 2.68629 164.163 6 164.163H98C101.314 164.163 104 161.476 104 158.163V10.245C104 6.93129 101.314 4.245 98 4.245H83.3221L80.6855 0.787706Z"/>
</mask>
<path fill-rule="evenodd" clip-rule="evenodd" d="M80.6855 0.787706C79.8851 -0.261919 78.3053 -0.261917 77.5049 0.787709L74.8684 4.245H6C2.68629 4.245 0 6.9313 0 10.245V158.163C0 161.476 2.68629 164.163 6 164.163H98C101.314 164.163 104 161.476 104 158.163V10.245C104 6.93129 101.314 4.245 98 4.245H83.3221L80.6855 0.787706Z" fill="white"/>
<path d="M77.5049 0.787709L78.3 1.3941V1.3941L77.5049 0.787709ZM80.6855 0.787706L79.8904 1.3941V1.3941L80.6855 0.787706ZM74.8684 4.245V5.245H75.3634L75.6635 4.85139L74.8684 4.245ZM83.3221 4.245L82.5269 4.85139L82.827 5.245H83.3221V4.245ZM78.3 1.3941C78.7003 0.869285 79.4902 0.869286 79.8904 1.3941L81.4807 0.181316C80.28 -1.39312 77.9104 -1.39312 76.7097 0.181319L78.3 1.3941ZM75.6635 4.85139L78.3 1.3941L76.7097 0.181318L74.0732 3.63861L75.6635 4.85139ZM6 5.245H74.8684V3.245H6V5.245ZM1 10.245C1 7.48358 3.23858 5.245 6 5.245V3.245C2.13401 3.245 -1 6.37901 -1 10.245H1ZM1 158.163V10.245H-1V158.163H1ZM6 163.163C3.23858 163.163 1 160.924 1 158.163H-1C-1 162.029 2.134 165.163 6 165.163V163.163ZM98 163.163H6V165.163H98V163.163ZM103 158.163C103 160.924 100.761 163.163 98 163.163V165.163C101.866 165.163 105 162.029 105 158.163H103ZM103 10.245V158.163H105V10.245H103ZM98 5.245C100.761 5.245 103 7.48358 103 10.245H105C105 6.37901 101.866 3.245 98 3.245V5.245ZM83.3221 5.245H98V3.245H83.3221V5.245ZM79.8904 1.3941L82.5269 4.85139L84.1172 3.63861L81.4807 0.181316L79.8904 1.3941Z" fill="#EFEFEF" mask="url(#path-1-inside-1_2653_95931)"/>
</svg>
