<svg width="20" height="20" viewBox="0 0 20 20" fill="none" xmlns="http://www.w3.org/2000/svg">
<path fill-rule="evenodd" clip-rule="evenodd" d="M10.0004 0.833252C8.45329 0.833252 6.96956 1.44783 5.8756 2.5418C4.78164 3.63576 4.16706 5.11949 4.16706 6.66659C4.16706 9.46047 3.5695 11.1954 3.01881 12.205C2.74232 12.712 2.47308 13.0445 2.28605 13.2419C2.19233 13.3408 2.11867 13.4064 2.07433 13.4434C2.05214 13.4619 2.03726 13.4732 2.03085 13.478L2.02847 13.4798C1.72973 13.685 1.59753 14.0603 1.70281 14.4081C1.80923 14.7595 2.13317 14.9999 2.50039 14.9999H17.5004C17.8676 14.9999 18.1916 14.7595 18.298 14.4081C18.4033 14.0603 18.2711 13.685 17.9723 13.4798L17.9699 13.478C17.9635 13.4732 17.9486 13.4619 17.9265 13.4434C17.8821 13.4064 17.8085 13.3408 17.7147 13.2419C17.5277 13.0445 17.2585 12.712 16.982 12.205C16.4313 11.1954 15.8337 9.46047 15.8337 6.66659C15.8337 5.11949 15.2191 3.63576 14.1252 2.5418C13.0312 1.44783 11.5475 0.833252 10.0004 0.833252ZM15.5188 13.0031C15.5822 13.1194 15.6459 13.2294 15.7093 13.3333H4.29149C4.3549 13.2294 4.41856 13.1194 4.48197 13.0031C5.18128 11.7211 5.83372 9.70604 5.83372 6.66659C5.83372 5.56152 6.27271 4.50171 7.05411 3.72031C7.83551 2.93891 8.89532 2.49992 10.0004 2.49992C11.1055 2.49992 12.1653 2.93891 12.9467 3.72031C13.7281 4.50171 14.1671 5.56152 14.1671 6.66659C14.1671 9.70604 14.8195 11.7211 15.5188 13.0031ZM9.27957 17.0818C9.04864 16.6837 8.5387 16.5482 8.14059 16.7791C7.74249 17.0101 7.60697 17.52 7.8379 17.9181C8.05767 18.2969 8.3731 18.6114 8.75262 18.83C9.13214 19.0486 9.56243 19.1637 10.0004 19.1637C10.4384 19.1637 10.8687 19.0486 11.2482 18.83C11.6277 18.6114 11.9431 18.2969 12.1629 17.9181C12.3938 17.52 12.2583 17.0101 11.8602 16.7791C11.4621 16.5482 10.9522 16.6837 10.7212 17.0818C10.648 17.2081 10.5428 17.3129 10.4163 17.3858C10.2898 17.4586 10.1464 17.497 10.0004 17.497C9.85441 17.497 9.71098 17.4586 9.58448 17.3858C9.45797 17.3129 9.35282 17.2081 9.27957 17.0818Z" fill="black"/>
</svg>
