<svg width="17" height="16" viewBox="0 0 17 16" fill="none" xmlns="http://www.w3.org/2000/svg">
<path d="M15.1394 13.5266L12.6661 11.0733C13.6261 9.87621 14.0911 8.3568 13.9653 6.82747C13.8395 5.29814 13.1325 3.87512 11.9898 2.85103C10.847 1.82694 9.35528 1.27961 7.82136 1.32158C6.28743 1.36356 4.82789 1.99164 3.74284 3.0767C2.65778 4.16175 2.02969 5.62129 1.98772 7.15522C1.94575 8.68914 2.49308 10.1808 3.51717 11.3236C4.54126 12.4664 5.96427 13.1733 7.49361 13.2991C9.02294 13.4249 10.5423 12.96 11.7394 11.9999L14.1927 14.4533C14.2547 14.5158 14.3284 14.5654 14.4097 14.5992C14.4909 14.633 14.5781 14.6505 14.6661 14.6505C14.7541 14.6505 14.8412 14.633 14.9225 14.5992C15.0037 14.5654 15.0774 14.5158 15.1394 14.4533C15.2596 14.329 15.3267 14.1628 15.3267 13.9899C15.3267 13.817 15.2596 13.6509 15.1394 13.5266ZM7.99941 11.9999C7.07643 11.9999 6.17418 11.7262 5.40675 11.2135C4.63932 10.7007 4.04118 9.97185 3.68797 9.11913C3.33476 8.2664 3.24234 7.32809 3.42241 6.42285C3.60247 5.5176 4.04693 4.68608 4.69958 4.03344C5.35222 3.38079 6.18374 2.93634 7.08899 2.75627C7.99423 2.57621 8.93254 2.66862 9.78526 3.02183C10.638 3.37504 11.3668 3.97318 11.8796 4.74061C12.3924 5.50804 12.6661 6.41029 12.6661 7.33327C12.6661 8.57095 12.1744 9.75793 11.2992 10.6331C10.4241 11.5083 9.23708 11.9999 7.99941 11.9999Z" fill="white" fill-opacity="0.43"/>
</svg>
