<svg width="22" height="22" viewBox="0 0 22 22" fill="none" xmlns="http://www.w3.org/2000/svg">
<g clip-path="url(#clip0_6062_76269)">
<path d="M20.1665 13.7501H18.3332V11.0001C18.3332 10.757 18.2366 10.5238 18.0647 10.3519C17.8928 10.18 17.6596 10.0834 17.4165 10.0834H11.9165V8.25008H13.7498C13.993 8.25008 14.2261 8.1535 14.398 7.9816C14.5699 7.80969 14.6665 7.57653 14.6665 7.33341V1.83341C14.6665 1.5903 14.5699 1.35714 14.398 1.18523C14.2261 1.01333 13.993 0.916748 13.7498 0.916748H8.24984C8.00672 0.916748 7.77356 1.01333 7.60166 1.18523C7.42975 1.35714 7.33317 1.5903 7.33317 1.83341V7.33341C7.33317 7.57653 7.42975 7.80969 7.60166 7.9816C7.77356 8.1535 8.00672 8.25008 8.24984 8.25008H10.0832V10.0834H4.58317C4.34006 10.0834 4.1069 10.18 3.93499 10.3519C3.76308 10.5238 3.6665 10.757 3.6665 11.0001V13.7501H1.83317C1.59006 13.7501 1.3569 13.8467 1.18499 14.0186C1.01308 14.1905 0.916504 14.4236 0.916504 14.6667V20.1667C0.916504 20.4099 1.01308 20.643 1.18499 20.8149C1.3569 20.9868 1.59006 21.0834 1.83317 21.0834H7.33317C7.57629 21.0834 7.80944 20.9868 7.98135 20.8149C8.15326 20.643 8.24984 20.4099 8.24984 20.1667V14.6667C8.24984 14.4236 8.15326 14.1905 7.98135 14.0186C7.80944 13.8467 7.57629 13.7501 7.33317 13.7501H5.49984V11.9167H16.4998V13.7501H14.6665C14.4234 13.7501 14.1902 13.8467 14.0183 14.0186C13.8464 14.1905 13.7498 14.4236 13.7498 14.6667V20.1667C13.7498 20.4099 13.8464 20.643 14.0183 20.8149C14.1902 20.9868 14.4234 21.0834 14.6665 21.0834H20.1665C20.4096 21.0834 20.6428 20.9868 20.8147 20.8149C20.9866 20.643 21.0832 20.4099 21.0832 20.1667V14.6667C21.0832 14.4236 20.9866 14.1905 20.8147 14.0186C20.6428 13.8467 20.4096 13.7501 20.1665 13.7501ZM6.4165 15.5834V19.2501H2.74984V15.5834H6.4165ZM9.1665 6.41675V2.75008H12.8332V6.41675H9.1665ZM19.2498 19.2501H15.5832V15.5834H19.2498V19.2501Z" fill="white" fill-opacity="0.4"/>
</g>
<defs>
<clipPath id="clip0_6062_76269">
<rect width="22" height="22" fill="white"/>
</clipPath>
</defs>
</svg>
