<svg width="22" height="22" viewBox="0 0 22 22" fill="none" xmlns="http://www.w3.org/2000/svg">
<path d="M17.4168 5.95842H14.6668V5.04175C14.6668 4.3124 14.3771 3.61293 13.8614 3.0972C13.3456 2.58148 12.6462 2.29175 11.9168 2.29175H10.0835C9.35415 2.29175 8.65468 2.58148 8.13895 3.0972C7.62323 3.61293 7.3335 4.3124 7.3335 5.04175V5.95842H4.5835C3.85415 5.95842 3.15468 6.24815 2.63895 6.76387C2.12323 7.2796 1.8335 7.97907 1.8335 8.70842V16.9584C1.8335 17.6878 2.12323 18.3872 2.63895 18.903C3.15468 19.4187 3.85415 19.7084 4.5835 19.7084H17.4168C18.1462 19.7084 18.8456 19.4187 19.3614 18.903C19.8771 18.3872 20.1668 17.6878 20.1668 16.9584V8.70842C20.1668 7.97907 19.8771 7.2796 19.3614 6.76387C18.8456 6.24815 18.1462 5.95842 17.4168 5.95842ZM9.16683 5.04175C9.16683 4.79863 9.26341 4.56548 9.43531 4.39357C9.60722 4.22166 9.84038 4.12508 10.0835 4.12508H11.9168C12.1599 4.12508 12.3931 4.22166 12.565 4.39357C12.7369 4.56548 12.8335 4.79863 12.8335 5.04175V5.95842H9.16683V5.04175ZM18.3335 16.9584C18.3335 17.2015 18.2369 17.4347 18.065 17.6066C17.8931 17.7785 17.6599 17.8751 17.4168 17.8751H4.5835C4.34038 17.8751 4.10722 17.7785 3.93531 17.6066C3.76341 17.4347 3.66683 17.2015 3.66683 16.9584V12.3292H6.41683V13.2917C6.41683 13.5349 6.51341 13.768 6.68531 13.9399C6.85722 14.1118 7.09038 14.2084 7.3335 14.2084C7.57661 14.2084 7.80977 14.1118 7.98168 13.9399C8.15359 13.768 8.25016 13.5349 8.25016 13.2917V12.3292H13.7502V13.2917C13.7502 13.5349 13.8467 13.768 14.0186 13.9399C14.1906 14.1118 14.4237 14.2084 14.6668 14.2084C14.9099 14.2084 15.1431 14.1118 15.315 13.9399C15.4869 13.768 15.5835 13.5349 15.5835 13.2917V12.3292H18.3335V16.9584ZM18.3335 10.5417H3.66683V8.70842C3.66683 8.4653 3.76341 8.23214 3.93531 8.06023C4.10722 7.88833 4.34038 7.79175 4.5835 7.79175H17.4168C17.6599 7.79175 17.8931 7.88833 18.065 8.06023C18.2369 8.23214 18.3335 8.4653 18.3335 8.70842V10.5417Z" fill="white" fill-opacity="0.4"/>
</svg>
