<svg width="20" height="20" viewBox="0 0 20 20" fill="none" xmlns="http://www.w3.org/2000/svg">
<path d="M6.24985 5.0001C6.00262 5.0001 5.76095 5.07341 5.55539 5.21076C5.34983 5.34811 5.18961 5.54333 5.095 5.77174C5.00039 6.00015 4.97564 6.25148 5.02387 6.49396C5.0721 6.73643 5.19115 6.95916 5.36597 7.13398C5.54078 7.30879 5.76351 7.42785 6.00599 7.47608C6.24846 7.52431 6.4998 7.49955 6.72821 7.40494C6.95661 7.31034 7.15184 7.15012 7.28919 6.94456C7.42654 6.739 7.49985 6.49732 7.49985 6.2501C7.49985 5.91857 7.36816 5.60063 7.13374 5.36621C6.89931 5.13179 6.58137 5.0001 6.24985 5.0001ZM17.5999 8.9251L10.5915 1.90843C10.5137 1.83119 10.4213 1.77009 10.3198 1.72862C10.2182 1.68715 10.1095 1.66613 9.99985 1.66676H2.49985C2.27884 1.66676 2.06688 1.75456 1.9106 1.91084C1.75432 2.06712 1.66652 2.27908 1.66652 2.5001V10.0001C1.66588 10.1098 1.6869 10.2185 1.72838 10.32C1.76985 10.4215 1.83095 10.5139 1.90818 10.5918L8.92485 17.6001C9.3936 18.0683 10.029 18.3312 10.6915 18.3312C11.354 18.3312 11.9894 18.0683 12.4582 17.6001L17.5999 12.5001C18.068 12.0313 18.331 11.3959 18.331 10.7334C18.331 10.0709 18.068 9.43551 17.5999 8.96676V8.9251ZM16.4249 11.2751L11.2749 16.4168C11.1187 16.572 10.9075 16.6591 10.6874 16.6591C10.4672 16.6591 10.256 16.572 10.0999 16.4168L3.33318 9.65843V3.33343H9.65819L16.4249 10.1001C16.5021 10.178 16.5632 10.2703 16.6047 10.3718C16.6461 10.4734 16.6672 10.5821 16.6665 10.6918C16.6656 10.9104 16.5788 11.1199 16.4249 11.2751Z" fill="#959595"/>
</svg>
