<svg width="20" height="20" viewBox="0 0 20 20" fill="none" xmlns="http://www.w3.org/2000/svg">
<path d="M11.0832 10.1834C11.5278 9.79853 11.8845 9.32249 12.1289 8.7876C12.3733 8.25272 12.4998 7.67151 12.4998 7.08342C12.4998 5.97835 12.0609 4.91854 11.2794 4.13714C10.498 3.35573 9.43824 2.91675 8.33317 2.91675C7.2281 2.91675 6.16829 3.35573 5.38689 4.13714C4.60549 4.91854 4.1665 5.97835 4.1665 7.08342C4.1665 7.67151 4.29301 8.25272 4.53744 8.7876C4.78188 9.32249 5.13852 9.79853 5.58317 10.1834C4.41662 10.7117 3.42689 11.5647 2.73232 12.6405C2.03775 13.7164 1.66773 14.9695 1.6665 16.2501C1.6665 16.4711 1.7543 16.6831 1.91058 16.8393C2.06686 16.9956 2.27882 17.0834 2.49984 17.0834C2.72085 17.0834 2.93281 16.9956 3.08909 16.8393C3.24537 16.6831 3.33317 16.4711 3.33317 16.2501C3.33317 14.924 3.85996 13.6522 4.79764 12.7145C5.73532 11.7769 7.00709 11.2501 8.33317 11.2501C9.65925 11.2501 10.931 11.7769 11.8687 12.7145C12.8064 13.6522 13.3332 14.924 13.3332 16.2501C13.3332 16.4711 13.421 16.6831 13.5772 16.8393C13.7335 16.9956 13.9455 17.0834 14.1665 17.0834C14.3875 17.0834 14.5995 16.9956 14.7558 16.8393C14.912 16.6831 14.9998 16.4711 14.9998 16.2501C14.9986 14.9695 14.6286 13.7164 13.934 12.6405C13.2395 11.5647 12.2497 10.7117 11.0832 10.1834ZM8.33317 9.58342C7.83872 9.58342 7.35537 9.43679 6.94425 9.16209C6.53312 8.88739 6.21269 8.49694 6.02347 8.04012C5.83425 7.58331 5.78474 7.08064 5.88121 6.59569C5.97767 6.11074 6.21577 5.66528 6.5654 5.31565C6.91504 4.96602 7.36049 4.72791 7.84545 4.63145C8.3304 4.53499 8.83306 4.5845 9.28988 4.77372C9.74669 4.96294 10.1371 5.28337 10.4118 5.69449C10.6865 6.10561 10.8332 6.58896 10.8332 7.08342C10.8332 7.74646 10.5698 8.38234 10.1009 8.85118C9.6321 9.32002 8.99621 9.58342 8.33317 9.58342ZM18.0915 7.60842C18.014 7.53031 17.9219 7.46831 17.8203 7.42601C17.7188 7.3837 17.6098 7.36192 17.4998 7.36192C17.3898 7.36192 17.2809 7.3837 17.1794 7.42601C17.0778 7.46831 16.9856 7.53031 16.9082 7.60842L15.2415 9.27508L14.7248 8.75008C14.6474 8.67197 14.5552 8.60998 14.4537 8.56767C14.3521 8.52537 14.2432 8.50358 14.1332 8.50358C14.0232 8.50358 13.9142 8.52537 13.8127 8.56767C13.7111 8.60998 13.619 8.67197 13.5415 8.75008C13.3863 8.90622 13.2992 9.11743 13.2992 9.33758C13.2992 9.55774 13.3863 9.76895 13.5415 9.92508L14.6582 11.0417C14.8143 11.197 15.0255 11.2841 15.2457 11.2841C15.4658 11.2841 15.677 11.197 15.8332 11.0417L18.0582 8.81675C18.1423 8.74118 18.2102 8.64929 18.2577 8.54665C18.3051 8.44401 18.3312 8.33279 18.3344 8.21974C18.3375 8.1067 18.3176 7.9942 18.2758 7.8891C18.2341 7.784 18.1713 7.6885 18.0915 7.60842Z" fill="#959595"/>
</svg>
