<svg width="22" height="22" viewBox="0 0 22 22" fill="none" xmlns="http://www.w3.org/2000/svg">
<path d="M11.2748 11.2016C11.764 10.7782 12.1563 10.2546 12.4251 9.66619C12.694 9.07782 12.8332 8.43849 12.8332 7.79158C12.8332 6.57601 12.3503 5.41022 11.4907 4.55068C10.6312 3.69114 9.46541 3.20825 8.24984 3.20825C7.03426 3.20825 5.86847 3.69114 5.00893 4.55068C4.14939 5.41022 3.6665 6.57601 3.6665 7.79158C3.6665 8.43849 3.80566 9.07782 4.07454 9.66619C4.34342 10.2546 4.73572 10.7782 5.22484 11.2016C3.94163 11.7826 2.85293 12.721 2.0889 13.9044C1.32487 15.0878 0.917853 16.4663 0.916504 17.8749C0.916504 18.118 1.01308 18.3512 1.18499 18.5231C1.3569 18.695 1.59006 18.7916 1.83317 18.7916C2.07629 18.7916 2.30944 18.695 2.48135 18.5231C2.65326 18.3512 2.74984 18.118 2.74984 17.8749C2.74984 16.4162 3.3293 15.0173 4.36075 13.9858C5.3922 12.9544 6.79115 12.3749 8.24984 12.3749C9.70853 12.3749 11.1075 12.9544 12.1389 13.9858C13.1704 15.0173 13.7498 16.4162 13.7498 17.8749C13.7498 18.118 13.8464 18.3512 14.0183 18.5231C14.1902 18.695 14.4234 18.7916 14.6665 18.7916C14.9096 18.7916 15.1428 18.695 15.3147 18.5231C15.4866 18.3512 15.5832 18.118 15.5832 17.8749C15.5818 16.4663 15.1748 15.0878 14.4108 13.9044C13.6467 12.721 12.558 11.7826 11.2748 11.2016ZM8.24984 10.5416C7.70594 10.5416 7.17425 10.3803 6.72202 10.0781C6.26978 9.77595 5.91731 9.34646 5.70917 8.84396C5.50103 8.34147 5.44657 7.78853 5.55268 7.25509C5.65879 6.72164 5.9207 6.23164 6.30529 5.84704C6.68989 5.46245 7.17989 5.20054 7.71334 5.09443C8.24679 4.98832 8.79972 5.04278 9.30222 5.25092C9.80471 5.45906 10.2342 5.81153 10.5364 6.26377C10.8386 6.716 10.9998 7.24769 10.9998 7.79158C10.9998 8.52093 10.7101 9.2204 10.1944 9.73613C9.67866 10.2519 8.97918 10.5416 8.24984 10.5416ZM17.1782 10.8349C17.7648 10.1743 18.148 9.35822 18.2817 8.4849C18.4153 7.61157 18.2937 6.71824 17.9315 5.91242C17.5692 5.1066 16.9818 4.42265 16.2399 3.94289C15.4981 3.46313 14.6333 3.20802 13.7498 3.20825C13.5067 3.20825 13.2736 3.30483 13.1017 3.47674C12.9297 3.64865 12.8332 3.8818 12.8332 4.12492C12.8332 4.36803 12.9297 4.60119 13.1017 4.7731C13.2736 4.94501 13.5067 5.04159 13.7498 5.04159C14.4792 5.04159 15.1787 5.33132 15.6944 5.84704C16.2101 6.36277 16.4998 7.06224 16.4998 7.79158C16.4985 8.27306 16.3709 8.74575 16.1296 9.16239C15.8883 9.57903 15.5418 9.92502 15.1248 10.1658C14.9889 10.2441 14.8754 10.3561 14.7952 10.4909C14.7149 10.6257 14.6706 10.7789 14.6665 10.9358C14.6627 11.0914 14.6985 11.2454 14.7707 11.3833C14.8429 11.5212 14.949 11.6385 15.079 11.7241L15.4365 11.9624L15.5557 12.0266C16.6606 12.5507 17.5928 13.3796 18.2424 14.4157C18.892 15.4518 19.232 16.652 19.2223 17.8749C19.2223 18.118 19.3189 18.3512 19.4908 18.5231C19.6627 18.695 19.8959 18.7916 20.139 18.7916C20.3821 18.7916 20.6153 18.695 20.7872 18.5231C20.9591 18.3512 21.0557 18.118 21.0557 17.8749C21.0632 16.4682 20.7108 15.083 20.0322 13.8508C19.3535 12.6186 18.3711 11.5805 17.1782 10.8349Z" fill="white" fill-opacity="0.4"/>
</svg>
