<svg width="20" height="20" viewBox="0 0 20 20" fill="none" xmlns="http://www.w3.org/2000/svg">
<path d="M17.5003 1.66675H2.50033C2.27931 1.66675 2.06735 1.75455 1.91107 1.91083C1.75479 2.06711 1.66699 2.27907 1.66699 2.50008V17.5001C1.66699 17.7211 1.75479 17.9331 1.91107 18.0893C2.06735 18.2456 2.27931 18.3334 2.50033 18.3334H17.5003C17.7213 18.3334 17.9333 18.2456 18.0896 18.0893C18.2459 17.9331 18.3337 17.7211 18.3337 17.5001V2.50008C18.3337 2.27907 18.2459 2.06711 18.0896 1.91083C17.9333 1.75455 17.7213 1.66675 17.5003 1.66675ZM9.16699 16.6667H3.33366V8.33342H9.16699V16.6667ZM16.667 16.6667H10.8337V8.33342H16.667V16.6667ZM16.667 6.66675H3.33366V3.33341H16.667V6.66675Z" fill="#959595"/>
</svg>
