<svg width="2" height="9" viewBox="0 0 2 9" fill="none" xmlns="http://www.w3.org/2000/svg">
<mask id="path-1-inside-1_6062_75334" fill="white">
<path d="M5.96046e-07 0.125L5.19552e-07 1.875L1.75 1.875L1.75 0.125L5.96046e-07 0.125ZM1.75 8.875L1.75 7.125L2.90067e-07 7.125L2.13572e-07 8.875L1.75 8.875ZM4.43057e-07 3.625L3.66562e-07 5.375L1.75 5.375L1.75 3.625L4.43057e-07 3.625Z"/>
</mask>
<path d="M5.96046e-07 0.125L5.19552e-07 1.875L1.75 1.875L1.75 0.125L5.96046e-07 0.125ZM1.75 8.875L1.75 7.125L2.90067e-07 7.125L2.13572e-07 8.875L1.75 8.875ZM4.43057e-07 3.625L3.66562e-07 5.375L1.75 5.375L1.75 3.625L4.43057e-07 3.625Z" fill="#959595"/>
<path d="M5.96046e-07 0.125L6.94397e-07 -2.125L-2.25 -2.125L-2.25 0.125L5.96046e-07 0.125ZM5.19552e-07 1.875L-2.25 1.875L-2.25 4.125L4.21201e-07 4.125L5.19552e-07 1.875ZM1.75 1.875L1.75 4.125L4 4.125L4 1.875L1.75 1.875ZM1.75 0.125L4 0.125L4 -2.125L1.75 -2.125L1.75 0.125ZM1.75 8.875L1.75 11.125L4 11.125L4 8.875L1.75 8.875ZM1.75 7.125L4 7.125L4 4.875L1.75 4.875L1.75 7.125ZM2.90067e-07 7.125L3.88417e-07 4.875L-2.25 4.875L-2.25 7.125L2.90067e-07 7.125ZM2.13572e-07 8.875L-2.25 8.875L-2.25 11.125L1.15221e-07 11.125L2.13572e-07 8.875ZM4.43057e-07 3.625L5.41407e-07 1.375L-2.25 1.375L-2.25 3.625L4.43057e-07 3.625ZM3.66562e-07 5.375L-2.25 5.375L-2.25 7.625L2.68211e-07 7.625L3.66562e-07 5.375ZM1.75 5.375L1.75 7.625L4 7.625L4 5.375L1.75 5.375ZM1.75 3.625L4 3.625L4 1.375L1.75 1.375L1.75 3.625ZM-2.25 0.125L-2.25 1.875L2.25 1.875L2.25 0.125L-2.25 0.125ZM4.21201e-07 4.125L1.75 4.125L1.75 -0.375L6.17902e-07 -0.375L4.21201e-07 4.125ZM4 1.875L4 0.125L-0.5 0.125L-0.5 1.875L4 1.875ZM1.75 -2.125L6.94397e-07 -2.125L4.97696e-07 2.375L1.75 2.375L1.75 -2.125ZM4 8.875L4 7.125L-0.5 7.125L-0.5 8.875L4 8.875ZM1.75 4.875L3.88417e-07 4.875L1.91716e-07 9.375L1.75 9.375L1.75 4.875ZM-2.25 7.125L-2.25 8.875L2.25 8.875L2.25 7.125L-2.25 7.125ZM1.15221e-07 11.125L1.75 11.125L1.75 6.625L3.11922e-07 6.625L1.15221e-07 11.125ZM-2.25 3.625L-2.25 5.375L2.25 5.375L2.25 3.625L-2.25 3.625ZM2.68211e-07 7.625L1.75 7.625L1.75 3.125L4.64912e-07 3.125L2.68211e-07 7.625ZM4 5.375L4 3.625L-0.5 3.625L-0.5 5.375L4 5.375ZM1.75 1.375L5.41407e-07 1.375L3.44706e-07 5.875L1.75 5.875L1.75 1.375Z" fill="#959595" mask="url(#path-1-inside-1_6062_75334)"/>
</svg>
