<svg width="2" height="9" viewBox="0 0 2 9" fill="none" xmlns="http://www.w3.org/2000/svg">
<mask id="path-1-inside-1_6062_81209" fill="white">
<path d="M0.250001 0.125L0.250001 1.875L2 1.875L2 0.125L0.250001 0.125ZM2 8.875L2 7.125L0.25 7.125L0.25 8.875L2 8.875ZM0.25 3.625L0.25 5.375L2 5.375L2 3.625L0.25 3.625Z"/>
</mask>
<path d="M0.250001 0.125L0.250001 1.875L2 1.875L2 0.125L0.250001 0.125ZM2 8.875L2 7.125L0.25 7.125L0.25 8.875L2 8.875ZM0.25 3.625L0.25 5.375L2 5.375L2 3.625L0.25 3.625Z" fill="#959595"/>
<path d="M0.250001 0.125L0.250001 -2.125L-2 -2.125L-2 0.125L0.250001 0.125ZM0.250001 1.875L-2 1.875L-2 4.125L0.25 4.125L0.250001 1.875ZM2 1.875L2 4.125L4.25 4.125L4.25 1.875L2 1.875ZM2 0.125L4.25 0.125L4.25 -2.125L2 -2.125L2 0.125ZM2 8.875L2 11.125L4.25 11.125L4.25 8.875L2 8.875ZM2 7.125L4.25 7.125L4.25 4.875L2 4.875L2 7.125ZM0.25 7.125L0.25 4.875L-2 4.875L-2 7.125L0.25 7.125ZM0.25 8.875L-2 8.875L-2 11.125L0.25 11.125L0.25 8.875ZM0.25 3.625L0.250001 1.375L-2 1.375L-2 3.625L0.25 3.625ZM0.25 5.375L-2 5.375L-2 7.625L0.25 7.625L0.25 5.375ZM2 5.375L2 7.625L4.25 7.625L4.25 5.375L2 5.375ZM2 3.625L4.25 3.625L4.25 1.375L2 1.375L2 3.625ZM-2 0.125L-2 1.875L2.5 1.875L2.5 0.125L-2 0.125ZM0.25 4.125L2 4.125L2 -0.375L0.250001 -0.375L0.25 4.125ZM4.25 1.875L4.25 0.125L-0.25 0.125L-0.25 1.875L4.25 1.875ZM2 -2.125L0.250001 -2.125L0.25 2.375L2 2.375L2 -2.125ZM4.25 8.875L4.25 7.125L-0.25 7.125L-0.25 8.875L4.25 8.875ZM2 4.875L0.25 4.875L0.25 9.375L2 9.375L2 4.875ZM-2 7.125L-2 8.875L2.5 8.875L2.5 7.125L-2 7.125ZM0.25 11.125L2 11.125L2 6.625L0.25 6.625L0.25 11.125ZM-2 3.625L-2 5.375L2.5 5.375L2.5 3.625L-2 3.625ZM0.25 7.625L2 7.625L2 3.125L0.25 3.125L0.25 7.625ZM4.25 5.375L4.25 3.625L-0.25 3.625L-0.25 5.375L4.25 5.375ZM2 1.375L0.250001 1.375L0.25 5.875L2 5.875L2 1.375Z" fill="#959595" mask="url(#path-1-inside-1_6062_81209)"/>
</svg>
